<?xml version="1.0" standalone="no"?>
<!DOCTYPE svg PUBLIC "-//W3C//DTD SVG 20010904//EN"
 "http://www.w3.org/TR/2001/REC-SVG-20010904/DTD/svg10.dtd">
<svg version="1.0" xmlns="http://www.w3.org/2000/svg"
 width="260.000000pt" height="260.000000pt" viewBox="0 0 260.000000 260.000000"
 preserveAspectRatio="xMidYMid meet">
<metadata>
Created by potrace 1.11, written by Peter Selinger 2001-2013
</metadata>
<g transform="translate(0.000000,260.000000) scale(0.100000,-0.100000)"
fill="#000000" stroke="none">
<path d="M1800 2454 c-14 -3 -44 -7 -67 -10 -43 -5 -43 -5 -43 -47 0 -39 -20
-96 -93 -272 -22 -52 -31 -63 -73 -84 -45 -22 -48 -23 -60 -6 -7 10 -19 15
-27 12 -18 -7 -37 11 -37 35 0 11 -7 18 -20 18 -15 0 -20 7 -20 24 0 14 -5 28
-11 32 -13 7 -6 104 10 158 5 17 14 48 20 69 l10 39 -72 -6 c-431 -37 -788
-66 -801 -66 -4 0 -5 -8 -1 -17 4 -10 11 -79 16 -153 4 -74 15 -220 24 -325 8
-104 20 -251 25 -325 5 -74 14 -189 20 -255 6 -66 14 -183 20 -260 5 -77 12
-162 14 -190 3 -27 10 -124 17 -215 6 -91 14 -168 18 -171 5 -6 191 7 606 41
72 6 182 15 245 20 356 26 545 42 549 46 4 4 -23 399 -39 569 -5 55 -14 168
-20 250 -6 83 -15 206 -21 275 -37 475 -51 646 -56 728 l-6 92 -51 -1 c-28 -1
-62 -3 -76 -5z m-482 -671 c15 -19 25 -24 28 -15 10 21 34 14 31 -10 -2 -19 2
-23 22 -20 13 1 34 -5 47 -13 13 -8 30 -15 38 -15 12 0 12 -6 0 -47 -10 -31
-12 -66 -8 -99 5 -40 1 -60 -16 -97 -16 -34 -19 -51 -12 -60 7 -8 7 -18 2 -27
-6 -8 -10 -34 -10 -57 0 -23 -4 -44 -10 -48 -5 -3 -7 -12 -3 -21 3 -8 -3 -21
-13 -29 -14 -10 -16 -17 -8 -25 9 -9 8 -25 -2 -65 -8 -29 -15 -102 -17 -162
-2 -101 -3 -108 -22 -105 -20 3 -20 2 0 -13 13 -10 20 -29 21 -58 1 -34 9 -50
34 -75 44 -44 37 -66 -22 -70 -27 -2 -59 3 -75 11 -19 10 -52 13 -102 11 -63
-3 -78 0 -105 19 -17 12 -36 22 -43 22 -18 0 -73 85 -66 102 3 7 -2 22 -11 32
-13 14 -16 38 -16 112 1 52 1 104 1 117 -1 12 4 22 10 22 5 0 8 4 5 8 -3 5 8
71 24 148 69 330 138 508 205 527 17 5 37 13 45 18 22 12 22 11 48 -18z"/>
<path d="M1737 367 c-3 -8 11 -12 46 -12 67 0 74 21 8 23 -30 0 -51 -4 -54
-11z"/>
<path d="M953 318 c-45 -12 -63 -42 -63 -106 0 -64 11 -87 51 -108 41 -21 82
-10 115 29 23 28 26 37 21 85 -9 84 -52 119 -124 100z m63 -42 c17 -18 19
-117 2 -134 -17 -17 -48 -15 -70 5 -24 21 -25 99 -1 125 19 22 49 23 69 4z"/>
<path d="M1555 319 c-59 -16 -83 -103 -49 -175 9 -19 20 -34 25 -34 17 0 50
-45 45 -62 -6 -26 12 -33 35 -12 14 13 16 20 8 30 -14 17 -5 44 15 44 7 0 21
11 30 25 15 23 15 26 1 31 -9 4 -26 -2 -39 -15 -25 -23 -56 -27 -74 -9 -7 7
-12 37 -12 68 0 31 5 61 12 68 19 19 56 14 70 -8 13 -20 58 -28 58 -11 0 18
-36 52 -65 59 -16 5 -44 5 -60 1z"/>
<path d="M1974 322 c-12 -2 -32 -14 -45 -28 -32 -34 -35 -130 -4 -164 29 -33
62 -42 101 -30 44 15 64 49 64 109 0 77 -48 124 -116 113z m56 -47 c21 -25 24
-92 6 -120 -18 -27 -54 -33 -74 -13 -15 15 -16 102 -2 129 13 22 52 25 70 4z"/>
<path d="M582 213 c3 -100 4 -108 23 -108 19 0 20 8 23 108 l3 107 -26 0 -26
0 3 -107z"/>
<path d="M670 210 c0 -109 0 -111 22 -108 20 3 22 8 19 59 -1 32 2 60 8 63 5
4 25 -19 43 -50 35 -61 57 -80 79 -72 11 4 13 28 11 112 -3 97 -5 106 -23 106
-17 0 -19 -7 -19 -66 0 -81 -12 -81 -57 2 -24 45 -37 60 -57 62 l-26 3 0 -111z"/>
<path d="M1086 308 c4 -7 22 -55 39 -108 27 -80 35 -96 55 -98 31 -5 35 2 69
98 16 47 33 93 37 103 6 16 2 18 -22 15 -25 -3 -29 -9 -42 -63 -8 -33 -16 -66
-18 -72 -2 -7 -10 -13 -18 -13 -9 0 -20 25 -31 75 -17 72 -19 75 -47 75 -20 0
-27 -4 -22 -12z"/>
<path d="M1320 222 c-19 -53 -36 -103 -38 -110 -6 -20 36 -14 48 8 15 28 85
28 100 0 10 -19 50 -29 50 -13 0 10 -49 144 -61 165 -5 10 -9 25 -9 33 0 10
-10 15 -27 15 -26 0 -30 -6 -63 -98z m81 1 c13 -35 4 -55 -23 -51 -18 2 -22 9
-20 28 6 57 26 68 43 23z"/>
<path d="M1735 233 c-16 -48 -33 -92 -37 -97 -14 -18 -8 -36 12 -36 10 0 24 9
30 20 15 28 80 28 98 0 10 -17 52 -29 52 -15 0 4 -13 39 -36 100 -4 11 -15 40
-24 65 -13 35 -22 46 -41 48 -23 3 -27 -3 -54 -85z m72 -14 c14 -37 10 -49
-17 -49 -25 0 -31 12 -24 49 8 40 26 40 41 0z"/>
</g>
</svg>
